<?xml version="1.0" standalone="no"?>
<!DOCTYPE svg PUBLIC "-//W3C//DTD SVG 1.1//EN" "http://www.w3.org/Graphics/SVG/1.1/DTD/svg11.dtd">
<svg width="6mm" height="9mm" viewBox="-3 -4 6 9" xmlns="http://www.w3.org/2000/svg" version="1.1">
<title>OpenSCAD Model</title>
<path d="
M 1.05521,3.66251 L 1.05521,3.51451 L 0.595342,2.95603 L -1.07305,2.95603 L -0.579816,2.85481 L 0.401525,1.0604
 L 0.316014,0.595986 L 0.914201,0.595986 L 0.882173,0.616302 L 0.541358,2.65683 L 0.90238,3.29114 L 1.04044,3.31684
 L 1.64128,2.93571 L 1.9821,0.895176 L 1.62107,0.260871 L 1.48301,0.235171 L 1.01968,0.529077 L 1.47579,0.110499
 L 1.47579,-0.0375015 L 1.0458,-0.5597 L 1.12569,-0.705776 L 1.46315,-0.11287 L 1.60121,-0.0871708 L 2.20205,-0.468301
 L 2.54286,-2.50883 L 2.18184,-3.14314 L 2.04378,-3.16884 L 1.64869,-2.91822 L 1.89637,-3.14551 L 1.89637,-3.29351
 L 1.43649,-3.852 L -0.526195,-3.852 L -1.05521,-3.36651 L -1.05521,-3.21851 L -0.595342,-2.66003 L 0.890696,-2.66003
 L -0.0650605,-0.912398 L -0.00680253,-0.595986 L -0.946772,-0.595986 L -1.01086,-0.537171 L -0.68155,-2.50883 L -1.04257,-3.14314
 L -1.18063,-3.16884 L -1.78147,-2.78771 L -2.12229,-0.747175 L -1.76127,-0.11287 L -1.6232,-0.0871708 L -1.22814,-0.337775
 L -1.47579,-0.110499 L -1.47579,0.0375015 L -1.01592,0.595986 L -0.648243,0.595986 L -1.02791,1.29023 L -0.961934,0.895176
 L -1.32296,0.260871 L -1.46102,0.235171 L -2.06186,0.616302 L -2.40267,2.65683 L -2.04165,3.29114 L -1.90359,3.31684
 L -1.44024,3.02292 L -1.89637,3.44152 L -1.89637,3.58952 L -1.43649,4.148 L 0.526195,4.148 z
M -1.33479,2.95603 L -1.33416,2.95563 L -1.3335,2.95603 z
M 2.59733,3.66251 L 2.59733,3.51451 L 2.13745,2.95603 L 1.85707,2.95603 L 1.32805,3.44152 L 1.32805,3.58952
 L 1.78792,4.148 L 2.06831,4.148 z
" stroke="black" fill="lightgray" stroke-width="0.5"/>
</svg>
