<?xml version="1.0" standalone="no"?>
<!DOCTYPE svg PUBLIC "-//W3C//DTD SVG 1.1//EN" "http://www.w3.org/Graphics/SVG/1.1/DTD/svg11.dtd">
<svg width="289mm" height="149mm" viewBox="-9 -14 289 149" xmlns="http://www.w3.org/2000/svg" version="1.1">
<title>OpenSCAD Model</title>
<path d="
M 7.85368,-1.58209 L 9.06921,-8.47575 L 7.78162,-10.6187 L 7.28922,-10.7055 L 5.88013,-9.85883 L 6.76346,-10.6267
 L 6.76346,-11.1267 L 5.12331,-13.0135 L -1.87669,-13.0135 L -3.76346,-11.3733 L -3.76346,-10.8733 L -2.12331,-8.98654
 L 3.1767,-8.98654 L -0.23204,-3.08241 L 0.244965,-0.628357 L 0.677979,-0.378357 L 3.13205,-0.855392 L 4.0148,-2.38437
 L 5.21837,-0.381317 L 5.71077,-0.294495 z
M 156.763,-10.6267 L 156.763,-11.1267 L 155.123,-13.0135 L 148.123,-13.0135 L 146.237,-11.3733 L 146.237,-10.8733
 L 147.877,-8.98654 L 154.877,-8.98654 z
M 186.763,-10.6267 L 186.763,-11.1267 L 185.123,-13.0135 L 178.123,-13.0135 L 176.237,-11.3733 L 176.237,-10.8733
 L 177.877,-8.98654 L 184.877,-8.98654 z
M 95.8537,9.91789 L 97.0692,3.02423 L 95.7816,0.881317 L 95.2892,0.794495 L 93.6367,1.78741 L 95.2635,0.373306
 L 95.2635,-0.126694 L 93.7299,-1.89087 L 96.632,-6.91757 L 96.155,-9.37163 L 95.722,-9.62163 L 95.5742,-9.5929
 L 96.7635,-10.6267 L 96.7635,-11.1267 L 95.1233,-13.0135 L 88.1233,-13.0135 L 86.2365,-11.3733 L 86.2365,-10.8733
 L 87.8767,-8.98654 L 93.1767,-8.98654 L 89.768,-3.08241 L 89.9757,-2.01346 L 86.6233,-2.01346 L 84.7365,-0.373306
 L 84.7365,0.126694 L 86.3767,2.01346 L 93.2605,2.01346 L 93.1463,2.08209 L 91.9308,8.97575 L 93.2184,11.1187
 L 93.7108,11.2055 z
M 247.854,-1.58209 L 249.069,-8.47575 L 247.782,-10.6187 L 247.289,-10.7055 L 245.88,-9.85883 L 246.763,-10.6267
 L 246.763,-11.1267 L 245.123,-13.0135 L 238.123,-13.0135 L 236.237,-11.3733 L 236.237,-10.8733 L 237.877,-8.98654
 L 244.877,-8.98654 L 245.105,-9.18526 L 243.931,-2.52423 L 245.218,-0.381317 L 245.711,-0.294495 z
M 67.8537,-1.58209 L 69.0692,-8.47575 L 67.7816,-10.6187 L 67.2892,-10.7055 L 65.8801,-9.85883 L 66.7635,-10.6267
 L 66.7635,-11.1267 L 65.1233,-13.0135 L 58.1233,-13.0135 L 56.2365,-11.3733 L 56.2365,-10.8733 L 57.8767,-8.98654
 L 64.8767,-8.98654 L 65.1053,-9.18526 L 63.9308,-2.52423 L 65.2184,-0.381317 L 65.7108,-0.294495 z
M 213.132,-0.855392 L 216.632,-6.91757 L 216.155,-9.37163 L 215.722,-9.62163 L 215.574,-9.5929 L 216.763,-10.6267
 L 216.763,-11.1267 L 215.123,-13.0135 L 208.123,-13.0135 L 206.237,-11.3733 L 206.237,-10.8733 L 207.877,-8.98654
 L 213.177,-8.98654 L 209.768,-3.08241 L 210.245,-0.628357 L 210.678,-0.378357 z
M 277.854,-1.58209 L 279.069,-8.47575 L 277.782,-10.6187 L 277.289,-10.7055 L 275.88,-9.85883 L 276.763,-10.6267
 L 276.763,-11.1267 L 275.123,-13.0135 L 268.123,-13.0135 L 266.237,-11.3733 L 266.237,-10.8733 L 267.877,-8.98654
 L 274.877,-8.98654 L 275.105,-9.18526 L 273.931,-2.52423 L 275.218,-0.381317 L 275.711,-0.294495 z
M 155.854,9.91789 L 157.069,3.02423 L 155.782,0.881317 L 155.289,0.794495 L 153.637,1.78741 L 155.263,0.373306
 L 155.263,-0.126694 L 153.623,-2.01346 L 146.623,-2.01346 L 146.395,-1.81476 L 147.569,-8.47575 L 146.282,-10.6187
 L 145.789,-10.7055 L 143.646,-9.41789 L 142.431,-2.52423 L 143.718,-0.381317 L 144.211,-0.294495 L 145.62,-1.14113
 L 144.737,-0.373306 L 144.737,0.126694 L 146.377,2.01346 L 153.261,2.01346 L 153.146,2.08209 L 151.931,8.97575
 L 153.218,11.1187 L 153.711,11.2055 z
M 37.8537,-1.58209 L 39.0692,-8.47575 L 37.7816,-10.6187 L 37.2892,-10.7055 L 35.3722,-9.55363 L 33.2679,-9.14459
 L 29.768,-3.08241 L 30.245,-0.628357 L 30.678,-0.378357 L 33.132,-0.855392 L 34.0148,-2.38437 L 35.2184,-0.381317
 L 35.7108,-0.294495 z
M 185.854,9.91789 L 187.069,3.02423 L 185.782,0.881317 L 185.289,0.794495 L 183.637,1.78741 L 185.263,0.373306
 L 185.263,-0.126694 L 183.623,-2.01346 L 176.623,-2.01346 L 176.395,-1.81476 L 177.569,-8.47575 L 176.282,-10.6187
 L 175.789,-10.7055 L 173.646,-9.41789 L 172.431,-2.52423 L 173.718,-0.381317 L 174.211,-0.294495 L 175.62,-1.14113
 L 174.737,-0.373306 L 174.737,0.126694 L 176.377,2.01346 L 183.261,2.01346 L 183.146,2.08209 L 181.931,8.97575
 L 183.218,11.1187 L 183.711,11.2055 z
M 127.854,-1.58209 L 129.069,-8.47575 L 127.782,-10.6187 L 127.289,-10.7055 L 125.146,-9.41789 L 123.931,-2.52423
 L 125.218,-0.381317 L 125.711,-0.294495 z
M 275.854,9.91789 L 277.069,3.02423 L 275.782,0.881317 L 275.289,0.794495 L 273.637,1.78741 L 275.263,0.373306
 L 275.263,-0.126694 L 273.623,-2.01346 L 266.623,-2.01346 L 266.395,-1.81476 L 267.569,-8.47575 L 266.282,-10.6187
 L 265.789,-10.7055 L 263.646,-9.41789 L 262.431,-2.52423 L 263.718,-0.381317 L 264.211,-0.294495 L 265.62,-1.14113
 L 264.737,-0.373306 L 264.737,0.126694 L 266.377,2.01346 L 273.261,2.01346 L 273.146,2.08209 L 271.931,8.97575
 L 273.218,11.1187 L 273.711,11.2055 z
M 125.854,9.91789 L 127.069,3.02423 L 125.782,0.881317 L 125.289,0.794495 L 123.637,1.78741 L 125.263,0.373306
 L 125.263,-0.126694 L 123.623,-2.01346 L 116.623,-2.01346 L 116.395,-1.81476 L 117.569,-8.47575 L 116.282,-10.6187
 L 115.789,-10.7055 L 113.646,-9.41789 L 112.431,-2.52423 L 113.718,-0.381317 L 114.211,-0.294495 L 115.62,-1.14113
 L 114.737,-0.373306 L 114.737,0.126694 L 116.377,2.01346 L 123.261,2.01346 L 123.146,2.08209 L 121.931,8.97575
 L 123.218,11.1187 L 123.711,11.2055 z
M 245.854,9.91789 L 247.069,3.02423 L 245.782,0.881317 L 245.289,0.794495 L 243.637,1.78741 L 245.263,0.373306
 L 245.263,-0.126694 L 243.623,-2.01346 L 236.623,-2.01346 L 236.395,-1.81476 L 237.569,-8.47575 L 236.282,-10.6187
 L 235.789,-10.7055 L 233.646,-9.41789 L 232.431,-2.52423 L 233.718,-0.381317 L 234.211,-0.294495 L 235.62,-1.14113
 L 234.737,-0.373306 L 234.737,0.126694 L 236.377,2.01346 L 243.261,2.01346 L 243.146,2.08209 L 241.931,8.97575
 L 243.218,11.1187 L 243.711,11.2055 z
M -3.6463,-1.58209 L -2.43077,-8.47575 L -3.71837,-10.6187 L -4.21077,-10.7055 L -6.35368,-9.41789 L -7.56921,-2.52423
 L -6.28162,-0.381317 L -5.78922,-0.294495 z
M 65.2635,0.373306 L 65.2635,-0.126694 L 63.6233,-2.01346 L 56.6233,-2.01346 L 54.7365,-0.373306 L 54.7365,0.126694
 L 56.3767,2.01346 L 63.3767,2.01346 z
M 183.763,12.3733 L 183.763,11.8733 L 182.123,9.98654 L 175.239,9.98654 L 175.354,9.91789 L 176.569,3.02423
 L 175.282,0.881317 L 174.789,0.794495 L 172.646,2.08209 L 171.431,8.97575 L 172.718,11.1187 L 173.211,11.2055
 L 174.863,10.2125 L 173.237,11.6267 L 173.237,12.1267 L 174.877,14.0135 L 181.877,14.0135 z
M 3.76346,12.3733 L 3.76346,11.8733 L 2.12331,9.98654 L -3.82706,9.98654 L -2.06793,9.64459 L 1.43205,3.58241
 L 0.955017,1.12836 L 0.522003,0.878357 L -1.93205,1.35539 L -3.66609,4.35886 L -3.43077,3.02423 L -4.71837,0.881317
 L -5.21077,0.794495 L -7.35368,2.08209 L -8.56921,8.97575 L -7.28162,11.1187 L -6.78922,11.2055 L -5.13667,10.2125
 L -6.76346,11.6267 L -6.76346,12.1267 L -5.12331,14.0135 L 1.87669,14.0135 z
M -4.76056,9.98654 L -4.75832,9.9852 L -4.75598,9.98654 z
M 243.763,12.3733 L 243.763,11.8733 L 242.123,9.98654 L 235.239,9.98654 L 235.354,9.91789 L 236.569,3.02423
 L 235.282,0.881317 L 234.789,0.794495 L 232.646,2.08209 L 231.431,8.97575 L 232.718,11.1187 L 233.211,11.2055
 L 234.863,10.2125 L 233.237,11.6267 L 233.237,12.1267 L 234.877,14.0135 L 241.877,14.0135 z
M 63.7635,12.3733 L 63.7635,11.8733 L 62.1233,9.98654 L 55.2394,9.98654 L 55.3537,9.91789 L 56.5692,3.02423
 L 55.2816,0.881317 L 54.7892,0.794495 L 52.6463,2.08209 L 51.4308,8.97575 L 52.7184,11.1187 L 53.2108,11.2055
 L 54.8633,10.2125 L 53.2365,11.6267 L 53.2365,12.1267 L 54.8767,14.0135 L 61.8767,14.0135 z
M 5.85368,9.91789 L 7.06921,3.02423 L 5.78162,0.881317 L 5.28922,0.794495 L 3.1463,2.08209 L 1.93077,8.97575
 L 3.21837,11.1187 L 3.71077,11.2055 z
M 35.8537,9.91789 L 37.0692,3.02423 L 35.7816,0.881317 L 35.2892,0.794495 L 33.1463,2.08209 L 31.9308,8.97575
 L 33.2184,11.1187 L 33.7108,11.2055 z
M 207.932,9.64459 L 211.432,3.58241 L 210.955,1.12836 L 210.522,0.878357 L 208.068,1.35539 L 204.568,7.41757
 L 205.045,9.87163 L 205.478,10.1216 z
M 153.763,12.3733 L 153.763,11.8733 L 152.123,9.98654 L 145.123,9.98654 L 143.237,11.6267 L 143.237,12.1267
 L 144.877,14.0135 L 151.877,14.0135 z
M 273.763,12.3733 L 273.763,11.8733 L 272.123,9.98654 L 265.123,9.98654 L 263.237,11.6267 L 263.237,12.1267
 L 264.877,14.0135 L 271.877,14.0135 z
M 93.7635,12.3733 L 93.7635,11.8733 L 92.1233,9.98654 L 85.1233,9.98654 L 83.2365,11.6267 L 83.2365,12.1267
 L 84.8767,14.0135 L 91.8767,14.0135 z
M 66.7635,19.3733 L 66.7635,18.8733 L 65.1233,16.9865 L 58.1233,16.9865 L 56.2365,18.6267 L 56.2365,19.1267
 L 57.8767,21.0135 L 64.8767,21.0135 z
M 186.763,19.3733 L 186.763,18.8733 L 185.123,16.9865 L 178.123,16.9865 L 176.237,18.6267 L 176.237,19.1267
 L 177.877,21.0135 L 184.877,21.0135 z
M 35.8537,39.9179 L 37.0692,33.0242 L 35.7816,30.8813 L 35.2892,30.7945 L 33.6367,31.7874 L 35.2635,30.3733
 L 35.2635,29.8733 L 33.7299,28.1091 L 36.632,23.0824 L 36.155,20.6284 L 35.722,20.3784 L 35.5742,20.4071
 L 36.7635,19.3733 L 36.7635,18.8733 L 35.1233,16.9865 L 28.1233,16.9865 L 26.2365,18.6267 L 26.2365,19.1267
 L 27.8767,21.0135 L 33.1767,21.0135 L 29.768,26.9176 L 29.9757,27.9865 L 26.6233,27.9865 L 26.3947,28.1852
 L 27.5692,21.5242 L 26.2816,19.3813 L 25.7892,19.2945 L 23.6463,20.5821 L 22.4308,27.4758 L 23.7184,29.6187
 L 24.2108,29.7055 L 25.6198,28.8589 L 24.7365,29.6267 L 24.7365,30.1267 L 26.3767,32.0135 L 33.2605,32.0135
 L 33.1463,32.0821 L 31.9308,38.9758 L 33.2184,41.1187 L 33.7108,41.2055 z
M 126.763,19.3733 L 126.763,18.8733 L 125.123,16.9865 L 118.123,16.9865 L 116.237,18.6267 L 116.237,19.1267
 L 117.877,21.0135 L 124.877,21.0135 z
M 156.763,19.3733 L 156.763,18.8733 L 155.123,16.9865 L 148.123,16.9865 L 146.237,18.6267 L 146.237,19.1267
 L 147.877,21.0135 L 154.877,21.0135 z
M 7.85368,28.4179 L 9.06921,21.5242 L 7.78162,19.3813 L 7.28922,19.2945 L 5.88013,20.1412 L 6.76346,19.3733
 L 6.76346,18.8733 L 5.12331,16.9865 L -1.87669,16.9865 L -3.76346,18.6267 L -3.76346,19.1267 L -2.12331,21.0135
 L 4.87669,21.0135 L 5.10529,20.8147 L 3.93077,27.4758 L 5.21837,29.6187 L 5.71077,29.7055 z
M 93.132,29.1446 L 96.632,23.0824 L 96.155,20.6284 L 95.722,20.3784 L 95.5742,20.4071 L 96.7635,19.3733
 L 96.7635,18.8733 L 95.1233,16.9865 L 88.1233,16.9865 L 86.2365,18.6267 L 86.2365,19.1267 L 87.8767,21.0135
 L 93.1767,21.0135 L 89.768,26.9176 L 90.245,29.3716 L 90.678,29.6216 z
M 247.854,28.4179 L 249.069,21.5242 L 247.782,19.3813 L 247.289,19.2945 L 245.146,20.5821 L 243.931,27.4758
 L 245.218,29.6187 L 245.711,29.7055 z
M 86.3537,28.4179 L 87.5692,21.5242 L 86.2816,19.3813 L 85.7892,19.2945 L 83.6463,20.5821 L 82.4308,27.4758
 L 83.7184,29.6187 L 84.2108,29.7055 z
M 217.854,28.4179 L 219.069,21.5242 L 217.782,19.3813 L 217.289,19.2945 L 215.146,20.5821 L 213.931,27.4758
 L 215.218,29.6187 L 215.711,29.7055 z
M 176.354,28.4179 L 177.569,21.5242 L 176.282,19.3813 L 175.789,19.2945 L 173.646,20.5821 L 172.431,27.4758
 L 173.718,29.6187 L 174.211,29.7055 z
M 125.263,30.3733 L 125.263,29.8733 L 123.623,27.9865 L 116.623,27.9865 L 116.395,28.1852 L 117.569,21.5242
 L 116.282,19.3813 L 115.789,19.2945 L 113.646,20.5821 L 112.431,27.4758 L 113.718,29.6187 L 114.211,29.7055
 L 115.62,28.8589 L 114.737,29.6267 L 114.737,30.1267 L 116.377,32.0135 L 123.377,32.0135 z
M 215.854,39.9179 L 217.069,33.0242 L 215.782,30.8813 L 215.289,30.7945 L 213.637,31.7874 L 215.263,30.3733
 L 215.263,29.8733 L 213.623,27.9865 L 206.623,27.9865 L 206.395,28.1852 L 207.569,21.5242 L 206.282,19.3813
 L 205.789,19.2945 L 203.646,20.5821 L 202.431,27.4758 L 203.718,29.6187 L 204.211,29.7055 L 205.62,28.8589
 L 204.737,29.6267 L 204.737,30.1267 L 206.377,32.0135 L 213.261,32.0135 L 213.146,32.0821 L 211.931,38.9758
 L 213.218,41.1187 L 213.711,41.2055 z
M 155.263,30.3733 L 155.263,29.8733 L 153.623,27.9865 L 146.623,27.9865 L 146.395,28.1852 L 147.569,21.5242
 L 146.282,19.3813 L 145.789,19.2945 L 143.646,20.5821 L 142.431,27.4758 L 143.718,29.6187 L 144.211,29.7055
 L 145.62,28.8589 L 144.737,29.6267 L 144.737,30.1267 L 146.377,32.0135 L 153.377,32.0135 z
M 56.3537,28.4179 L 57.5692,21.5242 L 56.2816,19.3813 L 55.7892,19.2945 L 53.6463,20.5821 L 52.4308,27.4758
 L 53.7184,29.6187 L 54.2108,29.7055 z
M 5.85368,39.9179 L 7.06921,33.0242 L 5.78162,30.8813 L 5.28922,30.7945 L 3.63672,31.7874 L 5.26346,30.3733
 L 5.26346,29.8733 L 3.62331,27.9865 L -3.37669,27.9865 L -3.60527,28.1852 L -2.43077,21.5242 L -3.71837,19.3813
 L -4.21077,19.2945 L -6.35368,20.5821 L -7.56921,27.4758 L -6.28162,29.6187 L -5.78922,29.7055 L -4.38019,28.8589
 L -5.26346,29.6267 L -5.26346,30.1267 L -3.62331,32.0135 L 3.26053,32.0135 L 3.1463,32.0821 L 1.93077,38.9758
 L 3.21837,41.1187 L 3.71077,41.2055 z
M 277.854,28.4179 L 279.069,21.5242 L 277.782,19.3813 L 277.289,19.2945 L 275.146,20.5821 L 273.931,27.4758
 L 275.218,29.6187 L 275.711,29.7055 z
M 275.854,39.9179 L 277.069,33.0242 L 275.782,30.8813 L 275.289,30.7945 L 273.146,32.0821 L 271.931,38.9758
 L 273.218,41.1187 L 273.711,41.2055 z
M 245.854,39.9179 L 247.069,33.0242 L 245.782,30.8813 L 245.289,30.7945 L 243.146,32.0821 L 241.931,38.9758
 L 243.218,41.1187 L 243.711,41.2055 z
M 273.763,42.3733 L 273.763,41.8733 L 272.123,39.9865 L 265.239,39.9865 L 265.354,39.9179 L 266.569,33.0242
 L 265.282,30.8813 L 264.789,30.7945 L 262.646,32.0821 L 261.431,38.9758 L 262.718,41.1187 L 263.211,41.2055
 L 264.863,40.2125 L 263.237,41.6267 L 263.237,42.1267 L 264.877,44.0135 L 271.877,44.0135 z
M 123.763,42.3733 L 123.763,41.8733 L 122.123,39.9865 L 115.239,39.9865 L 115.354,39.9179 L 116.569,33.0242
 L 115.282,30.8813 L 114.789,30.7945 L 112.646,32.0821 L 111.431,38.9758 L 112.718,41.1187 L 113.211,41.2055
 L 114.863,40.2125 L 113.237,41.6267 L 113.237,42.1267 L 114.877,44.0135 L 121.877,44.0135 z
M 33.7635,42.3733 L 33.7635,41.8733 L 32.1233,39.9865 L 25.2394,39.9865 L 25.3537,39.9179 L 26.5692,33.0242
 L 25.2816,30.8813 L 24.7892,30.7945 L 22.6463,32.0821 L 21.4308,38.9758 L 22.7184,41.1187 L 23.2108,41.2055
 L 24.8633,40.2125 L 23.2365,41.6267 L 23.2365,42.1267 L 24.8767,44.0135 L 31.8767,44.0135 z
M 145.354,39.9179 L 146.569,33.0242 L 145.282,30.8813 L 144.789,30.7945 L 142.646,32.0821 L 141.431,38.9758
 L 142.718,41.1187 L 143.211,41.2055 z
M 63.7635,42.3733 L 63.7635,41.8733 L 62.1233,39.9865 L 55.2394,39.9865 L 55.3537,39.9179 L 56.5692,33.0242
 L 55.2816,30.8813 L 54.7892,30.7945 L 52.6463,32.0821 L 51.4308,38.9758 L 52.7184,41.1187 L 53.2108,41.2055
 L 54.8633,40.2125 L 53.2365,41.6267 L 53.2365,42.1267 L 54.8767,44.0135 L 61.8767,44.0135 z
M -4.6463,39.9179 L -3.43077,33.0242 L -4.71837,30.8813 L -5.21077,30.7945 L -7.35368,32.0821 L -8.56921,38.9758
 L -7.28162,41.1187 L -6.78922,41.2055 z
M 183.763,42.3733 L 183.763,41.8733 L 182.123,39.9865 L 175.239,39.9865 L 175.354,39.9179 L 176.569,33.0242
 L 175.282,30.8813 L 174.789,30.7945 L 172.646,32.0821 L 171.431,38.9758 L 172.718,41.1187 L 173.211,41.2055
 L 174.863,40.2125 L 173.237,41.6267 L 173.237,42.1267 L 174.877,44.0135 L 181.877,44.0135 z
M 185.854,39.9179 L 187.069,33.0242 L 185.782,30.8813 L 185.289,30.7945 L 183.146,32.0821 L 181.931,38.9758
 L 183.218,41.1187 L 183.711,41.2055 z
M 205.354,39.9179 L 206.569,33.0242 L 205.282,30.8813 L 204.789,30.7945 L 202.646,32.0821 L 201.431,38.9758
 L 202.718,41.1187 L 203.211,41.2055 z
M 85.2417,39.9852 L 85.478,40.1216 L 87.9321,39.6446 L 91.4321,33.5824 L 90.955,31.1284 L 90.522,30.8784
 L 88.0679,31.3554 L 86.3339,34.3589 L 86.5692,33.0242 L 85.2816,30.8813 L 84.7892,30.7945 L 82.6463,32.0821
 L 81.4308,38.9758 L 82.7184,41.1187 L 83.2108,41.2055 z
M 246.763,49.3733 L 246.763,48.8733 L 245.123,46.9865 L 238.123,46.9865 L 236.237,48.6267 L 236.237,49.1267
 L 237.877,51.0135 L 244.877,51.0135 z
M 277.854,58.4179 L 279.069,51.5242 L 277.782,49.3813 L 277.289,49.2945 L 275.88,50.1412 L 276.763,49.3733
 L 276.763,48.8733 L 275.123,46.9865 L 268.123,46.9865 L 266.237,48.6267 L 266.237,49.1267 L 267.877,51.0135
 L 273.177,51.0135 L 269.768,56.9176 L 270.245,59.3716 L 270.678,59.6216 L 273.132,59.1446 L 274.015,57.6156
 L 275.218,59.6187 L 275.711,59.7055 z
M 187.854,58.4179 L 189.069,51.5242 L 187.782,49.3813 L 187.289,49.2945 L 185.88,50.1412 L 186.763,49.3733
 L 186.763,48.8733 L 185.123,46.9865 L 178.123,46.9865 L 176.237,48.6267 L 176.237,49.1267 L 177.877,51.0135
 L 184.877,51.0135 L 185.105,50.8147 L 183.931,57.4758 L 185.218,59.6187 L 185.711,59.7055 z
M 215.854,69.9179 L 217.069,63.0242 L 215.782,60.8813 L 215.289,60.7945 L 213.637,61.7874 L 215.263,60.3733
 L 215.263,59.8733 L 213.73,58.1091 L 216.632,53.0824 L 216.155,50.6284 L 215.722,50.3784 L 215.574,50.4071
 L 216.763,49.3733 L 216.763,48.8733 L 215.123,46.9865 L 208.123,46.9865 L 206.237,48.6267 L 206.237,49.1267
 L 207.877,51.0135 L 213.177,51.0135 L 209.768,56.9176 L 209.976,57.9865 L 206.623,57.9865 L 206.395,58.1852
 L 207.569,51.5242 L 206.282,49.3813 L 205.789,49.2945 L 203.646,50.5821 L 202.431,57.4758 L 203.718,59.6187
 L 204.211,59.7055 L 205.62,58.8589 L 204.737,59.6267 L 204.737,60.1267 L 206.377,62.0135 L 213.261,62.0135
 L 213.146,62.0821 L 211.931,68.9758 L 213.218,71.1187 L 213.711,71.2055 z
M 157.854,58.4179 L 159.069,51.5242 L 157.782,49.3813 L 157.289,49.2945 L 155.88,50.1412 L 156.763,49.3733
 L 156.763,48.8733 L 155.123,46.9865 L 148.123,46.9865 L 146.237,48.6267 L 146.237,49.1267 L 147.877,51.0135
 L 154.877,51.0135 L 155.105,50.8147 L 153.931,57.4758 L 155.218,59.6187 L 155.711,59.7055 z
M 97.8537,58.4179 L 99.0692,51.5242 L 97.7816,49.3813 L 97.2892,49.2945 L 95.8801,50.1412 L 96.7635,49.3733
 L 96.7635,48.8733 L 95.1233,46.9865 L 88.1233,46.9865 L 86.2365,48.6267 L 86.2365,49.1267 L 87.8767,51.0135
 L 94.8767,51.0135 L 95.1053,50.8147 L 93.9308,57.4758 L 95.2184,59.6187 L 95.7108,59.7055 z
M 127.854,58.4179 L 129.069,51.5242 L 127.782,49.3813 L 127.289,49.2945 L 125.88,50.1412 L 126.763,49.3733
 L 126.763,48.8733 L 125.123,46.9865 L 118.123,46.9865 L 116.237,48.6267 L 116.237,49.1267 L 117.877,51.0135
 L 124.877,51.0135 L 125.105,50.8147 L 123.931,57.4758 L 125.218,59.6187 L 125.711,59.7055 z
M 67.8537,58.4179 L 69.0692,51.5242 L 67.7816,49.3813 L 67.2892,49.2945 L 65.8801,50.1412 L 66.7635,49.3733
 L 66.7635,48.8733 L 65.1233,46.9865 L 58.1233,46.9865 L 56.2365,48.6267 L 56.2365,49.1267 L 57.8767,51.0135
 L 63.1767,51.0135 L 59.768,56.9176 L 60.245,59.3716 L 60.678,59.6216 L 63.132,59.1446 L 64.0148,57.6156
 L 65.2184,59.6187 L 65.7108,59.7055 z
M 56.3537,58.4179 L 57.5692,51.5242 L 56.2816,49.3813 L 55.7892,49.2945 L 53.6463,50.5821 L 52.4308,57.4758
 L 53.7184,59.6187 L 54.2108,59.7055 z
M 5.85368,69.9179 L 7.06921,63.0242 L 5.78162,60.8813 L 5.28922,60.7945 L 3.63672,61.7874 L 5.26346,60.3733
 L 5.26346,59.8733 L 3.72987,58.1091 L 6.63205,53.0824 L 6.15501,50.6284 L 5.722,50.3784 L 3.26794,50.8554
 L -0.23204,56.9176 L -0.0242615,57.9865 L -3.37669,57.9865 L -3.60527,58.1852 L -2.43077,51.5242 L -3.71837,49.3813
 L -4.21077,49.2945 L -6.35368,50.5821 L -7.56921,57.4758 L -6.28162,59.6187 L -5.78922,59.7055 L -4.38019,58.8589
 L -5.26346,59.6267 L -5.26346,60.1267 L -3.62331,62.0135 L 3.26053,62.0135 L 3.1463,62.0821 L 1.93077,68.9758
 L 3.21837,71.1187 L 3.71077,71.2055 z
M 176.354,58.4179 L 177.569,51.5242 L 176.282,49.3813 L 175.789,49.2945 L 173.646,50.5821 L 172.431,57.4758
 L 173.718,59.6187 L 174.211,59.7055 z
M 86.3537,58.4179 L 87.5692,51.5242 L 86.2816,49.3813 L 85.7892,49.2945 L 83.6463,50.5821 L 82.4308,57.4758
 L 83.7184,59.6187 L 84.2108,59.7055 z
M 155.263,60.3733 L 155.263,59.8733 L 153.623,57.9865 L 146.623,57.9865 L 146.395,58.1852 L 147.569,51.5242
 L 146.282,49.3813 L 145.789,49.2945 L 143.646,50.5821 L 142.431,57.4758 L 143.718,59.6187 L 144.211,59.7055
 L 145.62,58.8589 L 144.737,59.6267 L 144.737,60.1267 L 146.377,62.0135 L 153.377,62.0135 z
M 245.854,69.9179 L 247.069,63.0242 L 245.782,60.8813 L 245.289,60.7945 L 243.637,61.7874 L 245.263,60.3733
 L 245.263,59.8733 L 243.623,57.9865 L 236.623,57.9865 L 236.395,58.1852 L 237.569,51.5242 L 236.282,49.3813
 L 235.789,49.2945 L 233.646,50.5821 L 232.431,57.4758 L 233.718,59.6187 L 234.211,59.7055 L 235.62,58.8589
 L 234.737,59.6267 L 234.737,60.1267 L 236.377,62.0135 L 243.261,62.0135 L 243.146,62.0821 L 241.931,68.9758
 L 243.218,71.1187 L 243.711,71.2055 z
M 26.3537,58.4179 L 27.5692,51.5242 L 26.2816,49.3813 L 25.7892,49.2945 L 23.6463,50.5821 L 22.4308,57.4758
 L 23.7184,59.6187 L 24.2108,59.7055 z
M 266.354,58.4179 L 267.569,51.5242 L 266.282,49.3813 L 265.789,49.2945 L 263.646,50.5821 L 262.431,57.4758
 L 263.718,59.6187 L 264.211,59.7055 z
M 116.354,58.4179 L 117.569,51.5242 L 116.282,49.3813 L 115.789,49.2945 L 113.646,50.5821 L 112.431,57.4758
 L 113.718,59.6187 L 114.211,59.7055 z
M 183.763,72.3733 L 183.763,71.8733 L 182.123,69.9865 L 176.173,69.9865 L 177.932,69.6446 L 181.432,63.5824
 L 180.955,61.1284 L 180.522,60.8784 L 178.068,61.3554 L 176.334,64.3589 L 176.569,63.0242 L 175.282,60.8813
 L 174.789,60.7945 L 172.646,62.0821 L 171.431,68.9758 L 172.718,71.1187 L 173.211,71.2055 L 174.863,70.2125
 L 173.237,71.6267 L 173.237,72.1267 L 174.877,74.0135 L 181.877,74.0135 z
M 175.239,69.9865 L 175.242,69.9852 L 175.244,69.9865 z
M 125.854,69.9179 L 127.069,63.0242 L 125.782,60.8813 L 125.289,60.7945 L 123.146,62.0821 L 121.931,68.9758
 L 123.218,71.1187 L 123.711,71.2055 z
M 185.854,69.9179 L 187.069,63.0242 L 185.782,60.8813 L 185.289,60.7945 L 183.146,62.0821 L 181.931,68.9758
 L 183.218,71.1187 L 183.711,71.2055 z
M 65.8537,69.9179 L 67.0692,63.0242 L 65.7816,60.8813 L 65.2892,60.7945 L 63.1463,62.0821 L 61.9308,68.9758
 L 63.2184,71.1187 L 63.7108,71.2055 z
M 85.3537,69.9179 L 86.5692,63.0242 L 85.2816,60.8813 L 84.7892,60.7945 L 82.6463,62.0821 L 81.4308,68.9758
 L 82.7184,71.1187 L 83.2108,71.2055 z
M 95.8537,69.9179 L 97.0692,63.0242 L 95.7816,60.8813 L 95.2892,60.7945 L 93.1463,62.0821 L 91.9308,68.9758
 L 93.2184,71.1187 L 93.7108,71.2055 z
M 55.3537,69.9179 L 56.5692,63.0242 L 55.2816,60.8813 L 54.7892,60.7945 L 52.6463,62.0821 L 51.4308,68.9758
 L 52.7184,71.1187 L 53.2108,71.2055 z
M -4.6463,69.9179 L -3.43077,63.0242 L -4.71837,60.8813 L -5.21077,60.7945 L -7.35368,62.0821 L -8.56921,68.9758
 L -7.28162,71.1187 L -6.78922,71.2055 z
M 145.354,69.9179 L 146.569,63.0242 L 145.282,60.8813 L 144.789,60.7945 L 142.646,62.0821 L 141.431,68.9758
 L 142.718,71.1187 L 143.211,71.2055 z
M 33.7635,72.3733 L 33.7635,71.8733 L 32.1233,69.9865 L 25.2394,69.9865 L 25.3537,69.9179 L 26.5692,63.0242
 L 25.2816,60.8813 L 24.7892,60.7945 L 22.6463,62.0821 L 21.4308,68.9758 L 22.7184,71.1187 L 23.2108,71.2055
 L 24.8633,70.2125 L 23.2365,71.6267 L 23.2365,72.1267 L 24.8767,74.0135 L 31.8767,74.0135 z
M 123.763,72.3733 L 123.763,71.8733 L 122.123,69.9865 L 115.239,69.9865 L 115.354,69.9179 L 116.569,63.0242
 L 115.282,60.8813 L 114.789,60.7945 L 112.646,62.0821 L 111.431,68.9758 L 112.718,71.1187 L 113.211,71.2055
 L 114.863,70.2125 L 113.237,71.6267 L 113.237,72.1267 L 114.877,74.0135 L 121.877,74.0135 z
M 205.354,69.9179 L 206.569,63.0242 L 205.282,60.8813 L 204.789,60.7945 L 202.646,62.0821 L 201.431,68.9758
 L 202.718,71.1187 L 203.211,71.2055 z
M 267.932,69.6446 L 271.432,63.5824 L 270.955,61.1284 L 270.522,60.8784 L 268.068,61.3554 L 264.568,67.4176
 L 265.045,69.8716 L 265.478,70.1216 z
M 243.763,72.3733 L 243.763,71.8733 L 242.123,69.9865 L 235.123,69.9865 L 233.237,71.6267 L 233.237,72.1267
 L 234.877,74.0135 L 241.877,74.0135 z
M 247.854,88.4179 L 249.069,81.5242 L 247.782,79.3813 L 247.289,79.2945 L 245.88,80.1412 L 246.763,79.3733
 L 246.763,78.8733 L 245.123,76.9865 L 238.123,76.9865 L 236.237,78.6267 L 236.237,79.1267 L 237.877,81.0135
 L 243.177,81.0135 L 239.768,86.9176 L 240.245,89.3716 L 240.678,89.6216 L 243.132,89.1446 L 244.015,87.6156
 L 245.218,89.6187 L 245.711,89.7055 z
M 153.132,89.1446 L 156.632,83.0824 L 156.155,80.6284 L 155.722,80.3784 L 155.574,80.4071 L 156.763,79.3733
 L 156.763,78.8733 L 155.123,76.9865 L 148.123,76.9865 L 146.237,78.6267 L 146.237,79.1267 L 147.877,81.0135
 L 153.177,81.0135 L 149.768,86.9176 L 150.245,89.3716 L 150.678,89.6216 z
M 217.854,88.4179 L 219.069,81.5242 L 217.782,79.3813 L 217.289,79.2945 L 215.88,80.1412 L 216.763,79.3733
 L 216.763,78.8733 L 215.123,76.9865 L 208.123,76.9865 L 206.237,78.6267 L 206.237,79.1267 L 207.877,81.0135
 L 213.177,81.0135 L 209.768,86.9176 L 210.245,89.3716 L 210.678,89.6216 L 213.132,89.1446 L 214.015,87.6156
 L 215.218,89.6187 L 215.711,89.7055 z
M 185.854,99.9179 L 187.069,93.0242 L 185.782,90.8813 L 185.289,90.7945 L 183.637,91.7874 L 185.263,90.3733
 L 185.263,89.8733 L 183.73,88.1091 L 184.015,87.6156 L 185.218,89.6187 L 185.711,89.7055 L 187.854,88.4179
 L 189.069,81.5242 L 187.782,79.3813 L 187.289,79.2945 L 185.372,80.4464 L 183.268,80.8554 L 179.768,86.9176
 L 179.976,87.9865 L 176.623,87.9865 L 174.737,89.6267 L 174.737,90.1267 L 176.377,92.0135 L 183.261,92.0135
 L 183.146,92.0821 L 181.931,98.9758 L 183.218,101.119 L 183.711,101.205 z
M 26.3537,88.4179 L 27.5692,81.5242 L 26.2816,79.3813 L 25.7892,79.2945 L 23.6463,80.5821 L 22.4308,87.4758
 L 23.7184,89.6187 L 24.2108,89.7055 z
M 56.3537,88.4179 L 57.5692,81.5242 L 56.2816,79.3813 L 55.7892,79.2945 L 53.6463,80.5821 L 52.4308,87.4758
 L 53.7184,89.6187 L 54.2108,89.7055 z
M 67.8537,88.4179 L 69.0692,81.5242 L 67.7816,79.3813 L 67.2892,79.2945 L 65.1463,80.5821 L 63.9308,87.4758
 L 65.2184,89.6187 L 65.7108,89.7055 z
M 7.85368,88.4179 L 9.06921,81.5242 L 7.78162,79.3813 L 7.28922,79.2945 L 5.1463,80.5821 L 3.93077,87.4758
 L 5.21837,89.6187 L 5.71077,89.7055 z
M 95.8537,99.9179 L 97.0692,93.0242 L 95.7816,90.8813 L 95.2892,90.7945 L 93.6367,91.7874 L 95.2635,90.3733
 L 95.2635,89.8733 L 93.7299,88.1091 L 96.632,83.0824 L 96.155,80.6284 L 95.722,80.3784 L 93.2679,80.8554
 L 89.768,86.9176 L 89.9757,87.9865 L 86.6233,87.9865 L 86.3947,88.1852 L 87.5692,81.5242 L 86.2816,79.3813
 L 85.7892,79.2945 L 83.6463,80.5821 L 82.4308,87.4758 L 83.7184,89.6187 L 84.2108,89.7055 L 85.6198,88.8589
 L 84.7365,89.6267 L 84.7365,90.1267 L 86.3767,92.0135 L 87.688,92.0135 L 84.5679,97.4176 L 85.045,99.8716
 L 85.478,100.122 L 87.9321,99.6446 L 91.4321,93.5824 L 91.1271,92.0135 L 93.2605,92.0135 L 93.1463,92.0821
 L 91.9308,98.9758 L 93.2184,101.119 L 93.7108,101.205 z
M 117.932,99.6446 L 121.432,93.5824 L 121.127,92.0135 L 123.377,92.0135 L 125.263,90.3733 L 125.263,89.8733
 L 123.623,87.9865 L 116.623,87.9865 L 116.395,88.1852 L 117.569,81.5242 L 116.282,79.3813 L 115.789,79.2945
 L 113.646,80.5821 L 112.431,87.4758 L 113.718,89.6187 L 114.211,89.7055 L 115.62,88.8589 L 114.737,89.6267
 L 114.737,90.1267 L 116.377,92.0135 L 117.688,92.0135 L 114.568,97.4176 L 115.045,99.8716 L 115.478,100.122
 z
M -3.6463,88.4179 L -2.43077,81.5242 L -3.71837,79.3813 L -4.21077,79.2945 L -6.35368,80.5821 L -7.56921,87.4758
 L -6.28162,89.6187 L -5.78922,89.7055 z
M 206.354,88.4179 L 207.569,81.5242 L 206.282,79.3813 L 205.789,79.2945 L 203.646,80.5821 L 202.431,87.4758
 L 203.718,89.6187 L 204.211,89.7055 z
M 127.854,88.4179 L 129.069,81.5242 L 127.782,79.3813 L 127.289,79.2945 L 125.146,80.5821 L 123.931,87.4758
 L 125.218,89.6187 L 125.711,89.7055 z
M 33.132,89.1446 L 36.632,83.0824 L 36.155,80.6284 L 35.722,80.3784 L 33.2679,80.8554 L 29.768,86.9176
 L 30.245,89.3716 L 30.678,89.6216 z
M 175.354,99.9179 L 176.569,93.0242 L 175.282,90.8813 L 174.789,90.7945 L 172.646,92.0821 L 171.431,98.9758
 L 172.718,101.119 L 173.211,101.205 z
M 25.2417,99.9852 L 25.478,100.122 L 27.9321,99.6446 L 31.4321,93.5824 L 30.955,91.1284 L 30.522,90.8784
 L 28.0679,91.3554 L 26.3339,94.3589 L 26.5692,93.0242 L 25.2816,90.8813 L 24.7892,90.7945 L 22.6463,92.0821
 L 21.4308,98.9758 L 22.7184,101.119 L 23.2108,101.205 z
M 245.854,99.9179 L 247.069,93.0242 L 245.782,90.8813 L 245.289,90.7945 L 243.146,92.0821 L 241.931,98.9758
 L 243.218,101.119 L 243.711,101.205 z
M 63.7635,102.373 L 63.7635,101.873 L 62.1233,99.9865 L 56.1729,99.9865 L 57.9321,99.6446 L 61.4321,93.5824
 L 60.955,91.1284 L 60.522,90.8784 L 58.0679,91.3554 L 56.3339,94.3589 L 56.5692,93.0242 L 55.2816,90.8813
 L 54.7892,90.7945 L 52.6463,92.0821 L 51.4308,98.9758 L 52.7184,101.119 L 53.2108,101.205 L 54.8633,100.213
 L 53.2365,101.627 L 53.2365,102.127 L 54.8767,104.013 L 61.8767,104.013 z
M 55.2394,99.9865 L 55.2417,99.9852 L 55.244,99.9865 z
M 213.763,102.373 L 213.763,101.873 L 212.123,99.9865 L 205.239,99.9865 L 205.354,99.9179 L 206.569,93.0242
 L 205.282,90.8813 L 204.789,90.7945 L 202.646,92.0821 L 201.431,98.9758 L 202.718,101.119 L 203.211,101.205
 L 204.863,100.213 L 203.237,101.627 L 203.237,102.127 L 204.877,104.013 L 211.877,104.013 z
M 65.8537,99.9179 L 67.0692,93.0242 L 65.7816,90.8813 L 65.2892,90.7945 L 63.1463,92.0821 L 61.9308,98.9758
 L 63.2184,101.119 L 63.7108,101.205 z
M 5.85368,99.9179 L 7.06921,93.0242 L 5.78162,90.8813 L 5.28922,90.7945 L 3.1463,92.0821 L 1.93077,98.9758
 L 3.21837,101.119 L 3.71077,101.205 z
M 3.76346,102.373 L 3.76346,101.873 L 2.12331,99.9865 L -4.76056,99.9865 L -4.6463,99.9179 L -3.43077,93.0242
 L -4.71837,90.8813 L -5.21077,90.7945 L -7.35368,92.0821 L -8.56921,98.9758 L -7.28162,101.119 L -6.78922,101.205
 L -5.13667,100.213 L -6.76346,101.627 L -6.76346,102.127 L -5.12331,104.013 L 1.87669,104.013 z
M 215.854,99.9179 L 217.069,93.0242 L 215.782,90.8813 L 215.289,90.7945 L 213.146,92.0821 L 211.931,98.9758
 L 213.218,101.119 L 213.711,101.205 z
M 153.763,102.373 L 153.763,101.873 L 152.123,99.9865 L 146.173,99.9865 L 147.932,99.6446 L 151.432,93.5824
 L 150.955,91.1284 L 150.522,90.8784 L 148.068,91.3554 L 144.568,97.4176 L 145.045,99.8716 L 145.244,99.9865
 L 145.123,99.9865 L 143.237,101.627 L 143.237,102.127 L 144.877,104.013 L 151.877,104.013 z
M 237.932,99.6446 L 241.432,93.5824 L 240.955,91.1284 L 240.522,90.8784 L 238.068,91.3554 L 234.568,97.4176
 L 235.045,99.8716 L 235.478,100.122 z
M 279.263,102.373 L 279.263,101.873 L 277.623,99.9865 L 276.623,99.9865 L 274.737,101.627 L 274.737,102.127
 L 276.377,104.013 L 277.377,104.013 z
M 66.7635,109.373 L 66.7635,108.873 L 65.1233,106.987 L 58.1233,106.987 L 56.2365,108.627 L 56.2365,109.127
 L 57.8767,111.013 L 64.8767,111.013 z
M 5.26346,120.373 L 5.26346,119.873 L 3.72987,118.109 L 6.63205,113.082 L 6.15501,110.628 L 5.722,110.378
 L 3.26794,110.855 L -0.23204,116.918 L -0.0242615,117.987 L -3.37669,117.987 L -3.60527,118.185 L -2.43077,111.524
 L -3.71837,109.381 L -4.21077,109.295 L -6.35368,110.582 L -7.56921,117.476 L -6.28162,119.619 L -5.78922,119.706
 L -4.38019,118.859 L -5.26346,119.627 L -5.26346,120.127 L -3.62331,122.013 L 3.37669,122.013 z
M 35.2635,120.373 L 35.2635,119.873 L 33.7299,118.109 L 36.632,113.082 L 36.155,110.628 L 35.722,110.378
 L 33.2679,110.855 L 29.768,116.918 L 29.9757,117.987 L 26.6233,117.987 L 24.7365,119.627 L 24.7365,120.127
 L 26.3767,122.013 L 33.3767,122.013 z
M 65.2635,120.373 L 65.2635,119.873 L 63.6233,117.987 L 56.6233,117.987 L 54.7365,119.627 L 54.7365,120.127
 L 56.3767,122.013 L 63.3767,122.013 z
M -4.6463,129.918 L -3.43077,123.024 L -4.71837,120.881 L -5.21077,120.794 L -7.35368,122.082 L -8.56921,128.976
 L -7.28162,131.119 L -6.78922,131.205 z
M 63.7635,132.373 L 63.7635,131.873 L 62.1233,129.987 L 55.1233,129.987 L 53.2365,131.627 L 53.2365,132.127
 L 54.8767,134.013 L 61.8767,134.013 z
" stroke="black" fill="lightgray" stroke-width="0.5"/>
</svg>
